<svg width="84" height="83" viewBox="0 0 84 83" fill="none" xmlns="http://www.w3.org/2000/svg">
<path d="M45.6694 60.1689H58.4951C59.9454 60.1689 59.8755 58.6886 59.8755 58.6886V38.4698L41.7728 22.0475L22.5867 38.4698V59.0369C22.5867 59.0369 22.5518 60.2212 23.6701 60.2212C25.0854 60.2212 36.7928 60.2038 36.7928 60.2038L45.6694 60.1689Z" fill="#4C52A3"/>
<path d="M15.5098 36.589C15.5098 36.589 17.1349 39.5844 20.6995 36.589L41.9475 18.669L61.885 36.4671C66.0088 39.4277 67.5465 36.4671 67.5465 36.4671L41.9475 13.3748L15.5098 36.589Z" fill="#4C52A3"/>
<path d="M56.5904 37.4075C56.5904 37.3379 56.5031 37.2856 56.4157 37.3204C56.3982 37.3379 56.3633 37.3553 56.3283 37.3901C56.1536 37.5817 55.9614 37.721 55.9614 37.721C55.9614 37.721 56.206 37.0766 56.2584 36.9199C56.2759 36.8677 56.2759 36.8154 56.2584 36.7806C56.241 36.7283 56.1885 36.6935 56.1186 36.7283C56.0837 36.7458 56.0313 36.7806 55.9963 36.8502C55.8391 37.1115 55.6119 37.512 55.6119 37.512C55.6119 37.4946 55.8041 36.6064 55.7342 36.5019C55.6818 36.3975 55.5245 36.4323 55.4546 36.5368C55.4546 36.5542 55.4372 36.5716 55.4372 36.5716C55.4022 36.7109 55.1751 37.4075 55.1751 37.4075C55.1751 37.4075 55.0877 36.9547 55.0702 36.7283C55.0528 36.6413 55.0353 36.6064 54.9829 36.589C54.913 36.5716 54.8256 36.6587 54.8081 36.7806C54.8081 36.9721 54.7906 37.7907 54.7557 37.8951C54.7208 37.9996 54.546 37.8081 54.3014 37.6513C54.1791 37.5817 54.1092 37.5991 54.0742 37.6513C54.0393 37.7036 54.0393 37.7732 54.0393 37.7732C54.0393 37.7732 54.3014 38.017 54.4761 38.2783C54.5984 38.4524 54.581 38.7311 54.546 38.94C54.4761 38.94 54.4237 38.94 54.3888 38.9749L54.3713 38.9923C54.3363 39.0445 53.2704 41.4478 52.5715 41.8135C52.5016 41.8483 52.4317 41.8832 52.3443 41.918C52.2919 41.8483 52.257 41.7613 52.2395 41.6742C52.222 41.5697 52.222 41.4826 52.222 41.3781C52.222 41.2911 52.222 41.1866 52.2395 41.0995C52.2744 40.8383 52.3269 40.5771 52.4142 40.3332C52.4492 40.281 52.4841 40.2288 52.5191 40.1765C52.6763 39.9501 52.7986 39.7237 52.9035 39.4799C52.9559 39.4102 52.9909 39.358 53.0258 39.2883C53.1481 39.0619 53.2355 38.8181 53.3054 38.5743C53.3578 38.3305 53.3753 38.0693 53.3578 37.8081C53.3403 37.5468 53.2704 37.303 53.1656 37.0592C53.0957 36.9199 53.0258 36.7806 52.9384 36.6413C52.886 36.5368 52.8511 36.4845 52.8161 36.4497C52.9384 36.5716 53.3229 36.9896 53.4277 37.1115C53.4277 37.1115 53.2704 35.9795 52.2045 35.8053C51.6803 35.7183 51.2435 35.9272 50.9464 36.1536C51.0513 36.0492 51.1561 35.9447 51.2784 35.875C51.5405 35.7183 51.8376 35.6486 52.1346 35.6834C52.3094 35.7009 52.4841 35.7357 52.6414 35.8228C52.6589 35.8228 52.6589 35.8053 52.6589 35.8053C52.3793 35.666 52.0473 35.6138 51.7328 35.666C51.4532 35.7183 51.1736 35.8576 50.9814 36.0666C50.929 36.1188 50.8765 36.1885 50.8241 36.2407C50.8066 36.2581 50.8066 36.2755 50.7892 36.293C50.8066 36.2407 50.8416 36.1885 50.8765 36.1536C50.9639 36.0317 51.0688 35.9098 51.1911 35.8228C51.226 35.8053 51.261 35.7705 51.2959 35.7531C51.3309 35.7357 51.3658 35.7009 51.4182 35.6834C51.4357 35.6834 51.4182 35.6486 51.4008 35.6486C51.3658 35.666 51.3309 35.6834 51.2959 35.7009C51.261 35.7183 51.226 35.7357 51.1911 35.7705C51.1212 35.8228 51.0688 35.875 50.9989 35.9272C50.894 36.0317 50.8066 36.1536 50.7368 36.293C50.7018 36.2755 50.6669 36.2581 50.6494 36.2581C50.5795 36.2581 50.4921 36.2755 50.4222 36.3104C50.4048 36.293 50.3873 36.2581 50.3523 36.2407C50.3349 36.1885 50.265 36.0492 50.1601 35.8924C50.1426 35.8576 50.1077 35.8053 50.0902 35.7705C49.9854 35.6138 49.8631 35.4745 49.7233 35.3526C49.6359 35.3003 49.5485 35.2481 49.4612 35.1958C49.3738 35.1436 49.269 35.1087 49.1641 35.0913C48.9544 35.0391 48.7273 35.0217 48.5176 35.0391C48.4302 35.0565 48.3429 35.0739 48.238 35.0913C48.1856 35.0913 48.1332 35.0913 48.0808 35.1087C47.941 35.1262 47.7488 35.0913 47.4866 35.0739C47.4692 35.0739 47.4517 35.0739 47.4168 35.0565C47.242 35.0391 47.0673 35.0217 46.8925 35.0217C46.7353 35.0217 46.578 35.0217 46.4208 35.0565C46.2635 35.0739 46.1237 35.1262 45.9839 35.1784C45.8616 35.2306 45.7218 35.2829 45.617 35.37C45.5296 35.4222 45.4597 35.4919 45.3898 35.5789C45.3024 35.666 45.2325 35.7705 45.1452 35.8576C45.0928 35.9098 45.0403 35.9795 44.9879 36.0317C44.953 36.084 44.918 36.1362 44.8831 36.1711C44.8132 36.1536 44.7608 36.1362 44.6909 36.1362C44.6559 36.1362 44.621 36.1536 44.6035 36.1711C44.586 36.1188 44.5511 36.0666 44.5336 36.0143C44.4462 35.875 44.3414 35.7531 44.2191 35.6486C44.1841 35.6138 44.1492 35.5964 44.1142 35.5789C44.0793 35.5615 44.0269 35.5441 43.9919 35.5267C43.9744 35.5267 43.957 35.5441 43.9744 35.5441C44.0094 35.5615 44.0443 35.5789 44.0793 35.5964C44.1142 35.6138 44.1492 35.6312 44.1666 35.666C44.2365 35.7183 44.289 35.7705 44.3414 35.8228C44.4462 35.9272 44.5161 36.0492 44.5685 36.1885C44.5685 36.1711 44.5511 36.1711 44.5511 36.1536C44.5161 36.1014 44.4637 36.0317 44.4288 35.9795C44.3414 35.875 44.2365 35.7705 44.1142 35.7009C43.8521 35.5267 43.5551 35.457 43.2405 35.4745C43.0658 35.4919 42.8911 35.5267 42.7163 35.5964C42.6989 35.5964 42.7163 35.6138 42.7338 35.6138C43.0309 35.4919 43.3454 35.4745 43.6599 35.5441C43.9395 35.6138 44.1841 35.7531 44.3589 35.9621C44.3763 35.9795 44.3938 36.0143 44.4113 36.0317C44.1142 35.7879 43.6949 35.5615 43.1706 35.6312C42.1048 35.7705 41.8951 36.8851 41.8951 36.8851C41.9999 36.7632 42.4018 36.38 42.5241 36.2581C42.4892 36.293 42.4542 36.3452 42.4018 36.4323C42.3319 36.5368 42.262 36.6238 42.2096 36.7458C42.0873 36.9721 41.9999 37.216 41.9475 37.4772C41.8951 37.7384 41.8951 37.9822 41.93 38.2434C41.965 38.5047 42.0349 38.7485 42.1397 38.9749C42.1921 39.0794 42.2445 39.1839 42.297 39.2709C42.3843 39.4973 42.5066 39.7411 42.6464 39.9675C42.6814 40.0198 42.7163 40.072 42.7338 40.1243C42.7513 40.1765 42.7688 40.2113 42.7688 40.2636C42.8212 40.4551 42.8561 40.6293 42.8736 40.8209C42.8736 40.9079 42.8911 41.0124 42.8911 41.0995C42.8911 41.204 42.8911 41.2911 42.8736 41.3956C42.8561 41.5 42.8386 41.6045 42.7688 41.6916C42.7163 41.7613 42.629 41.8309 42.5241 41.8483V41.8658C42.7163 41.8658 42.8386 41.6916 42.8911 41.5349C42.926 41.4304 42.926 41.3259 42.9435 41.2214C42.9435 41.1169 42.9435 41.0298 42.9435 40.9254C42.9435 40.7512 42.9085 40.5945 42.8736 40.4377C43.2056 41.3607 42.7513 41.9528 42.5416 41.9877C42.5416 41.9877 42.926 42.0399 43.258 41.7961C43.6075 41.5175 43.922 40.8905 43.6599 39.4625C43.6774 39.4799 44.2016 40.3332 43.7997 40.8383C43.7997 40.8383 44.0269 40.7338 44.1666 40.4377C44.1666 40.5248 44.1492 40.5945 44.1142 40.6815C44.0968 40.7686 44.0618 40.8383 44.0269 40.9079C44.0269 40.9254 44.0443 40.9254 44.0443 40.9254C44.1492 40.7512 44.2016 40.5422 44.2016 40.3507C44.2191 40.2636 44.2365 40.1765 44.254 40.072C44.4637 40.3507 44.7957 40.5771 45.0229 40.6119C45.1102 40.6293 45.1801 40.5771 45.2325 40.5248C45.3549 40.8383 45.4946 41.1343 45.6694 41.3433C46.281 42.0399 46.7178 41.9354 47.0673 42.0225C47.1197 42.0399 47.1721 42.0399 47.2071 42.0573C47.2071 42.1096 47.2071 42.1618 47.1896 42.2141C47.1896 42.2489 47.1896 42.2837 47.1896 42.3186C47.1896 42.3534 47.1896 42.3882 47.1721 42.4056C47.1197 42.423 47.0848 42.4405 47.0323 42.4405C46.9624 42.4753 46.8052 42.5449 46.7877 42.6494C46.578 42.6843 46.3683 42.7365 46.1936 42.8236C45.9315 42.9281 45.4248 43.1196 45.2325 43.3635C45.1626 43.4505 44.8656 43.9904 44.4812 44.6696H44.4637C44.4637 44.687 44.4113 44.7915 44.3414 44.9308C44.1492 45.2617 43.9395 45.6274 43.7298 45.9757C42.9784 47.247 42.1921 48.4486 42.1048 48.6228C42.0873 48.675 42.0873 48.7447 42.1222 48.8143C41.7728 49.2149 41.4408 49.0233 41.4408 49.0233L42.4193 49.9637C42.4193 49.9637 42.5765 49.7373 42.8911 49.3368C42.961 49.3368 43.0483 49.3368 43.1008 49.302C43.1182 49.2846 44.1841 48.0655 44.953 46.9509C45.3898 46.2892 45.7043 45.5752 45.7742 45.4184C45.7742 45.4533 45.7568 45.5055 45.7568 45.5403C45.7393 45.6448 45.7218 45.7319 45.6869 45.9409C45.6344 46.4982 45.5121 47.1251 45.5121 47.752C45.5121 47.9262 45.5121 48.1003 45.5296 48.2745C45.5471 48.3616 45.5995 48.4312 45.7218 48.5009C45.4073 49.5632 44.4288 53.0288 44.7608 53.2029C45.0054 53.3248 45.3549 53.4119 45.7568 53.4816C45.7742 53.7776 45.8441 54.0388 45.8441 54.2827C45.8441 54.3523 45.8266 54.422 45.8092 54.4916C45.6869 54.9096 45.6344 56.1112 45.582 56.8601C45.582 56.8601 45.582 56.8601 45.5645 56.8601C45.5645 56.9471 45.5471 57.0342 45.5471 57.1039C45.5296 57.3129 45.5121 57.5915 45.4772 57.8701C45.4422 57.8701 45.4248 57.8701 45.3898 57.8701C45.3898 57.8701 45.3898 57.8701 45.3723 57.8701C45.3024 57.8353 45.4073 58.1836 45.0403 58.4971C44.9879 58.4797 44.953 58.5145 44.9355 58.5319C44.918 58.5493 44.918 58.5667 44.9355 58.5842H44.918C44.8831 58.5667 44.8656 58.5493 44.8481 58.5493C44.7782 58.5319 44.7433 58.5667 44.7258 58.5842C44.7083 58.6016 44.7083 58.6364 44.7258 58.6538L44.7433 58.6712C44.7258 58.6712 44.7083 58.6886 44.6909 58.6886C44.6734 58.6712 44.6559 58.6712 44.6384 58.6712C44.5685 58.6364 44.4986 58.6538 44.4812 58.6712C44.4637 58.6886 44.4462 58.7061 44.4637 58.7409C44.3414 58.7583 44.2365 58.7931 44.1142 58.828C43.9744 58.8802 43.8346 58.9499 43.7473 59.0718C43.7123 59.124 43.6774 59.1763 43.6599 59.2459C43.5201 59.6116 43.8521 59.9251 44.1841 59.9425C44.2365 59.9425 44.2715 59.9425 44.3239 59.9425C44.6559 59.9425 45.0753 59.8729 45.4248 59.8032C45.6519 59.7684 45.8441 59.751 45.9839 59.751C46.2111 59.751 46.3683 59.7858 46.5081 59.7858C46.613 59.7858 46.7003 59.7684 46.8052 59.7161C46.8576 59.6813 46.8925 59.6291 46.91 59.5768C46.9275 59.542 46.9275 59.5072 46.945 59.4549C46.945 59.4549 46.945 59.4549 46.9275 59.4549C46.9799 59.0544 46.8226 58.2707 46.8052 58.2359C46.8052 58.2359 46.8052 58.2359 46.8226 58.2359C46.8226 58.2359 46.8052 58.2184 46.7528 58.201C46.7877 58.0095 46.8401 57.7657 46.9275 57.4696C46.945 57.3825 46.9799 57.3129 46.9974 57.2258C47.3469 56.0242 47.3818 55.1708 47.3818 54.5439C47.3818 54.4394 47.3993 54.3175 47.4168 54.1782C47.4517 53.9866 47.5041 53.795 47.574 53.5861C47.941 53.5861 48.3079 53.5686 48.605 53.5512C48.6749 53.7428 48.7273 53.8995 48.7622 53.9866C48.7797 54.0563 48.8147 54.1259 48.8321 54.2304C48.9195 54.6658 48.9719 55.432 49.269 56.8427C49.269 56.8775 49.2864 56.8949 49.2864 56.9297C49.2864 56.9471 49.3039 56.9646 49.3039 56.9994C49.3913 57.4696 49.4262 57.8005 49.4088 58.0443C49.3738 58.0617 49.3563 58.0791 49.3563 58.0791C49.3039 58.1488 49.1292 58.6016 49.234 58.8802C49.3039 59.0544 49.1991 59.3504 49.1466 59.5942V59.6116C49.1466 59.6116 49.1466 59.6116 49.1466 59.6291V59.6465C49.1466 59.6465 49.1466 59.6465 49.1466 59.6639V59.6813C49.1466 59.6813 49.1466 59.6813 49.1466 59.6987V59.7161V59.7335C49.1466 59.7335 49.1466 59.7335 49.1466 59.751V59.7684C49.1466 59.7858 49.1466 59.8206 49.1466 59.838V59.8555C49.1466 59.8555 49.1466 59.8555 49.1466 59.8729C49.1466 59.8729 49.1466 59.8729 49.1466 59.8903V59.9077C49.269 60.1341 50.3174 60.2734 50.6494 59.9077C50.6494 59.8903 50.6669 59.8903 50.6669 59.8729C50.6669 59.8729 50.6669 59.8729 50.6669 59.8555C50.6669 59.8555 50.6669 59.838 50.6843 59.838C50.6843 59.838 50.6843 59.8206 50.7018 59.8206C50.7018 59.8206 50.7018 59.8206 50.7018 59.8032C50.7018 59.7858 50.7193 59.7858 50.7193 59.7684C50.7193 59.7684 50.7193 59.7684 50.7193 59.751V59.7335C50.7193 59.7335 50.7193 59.7161 50.7368 59.7161C50.7368 59.7161 50.7368 59.7161 50.7368 59.6987V59.6813C50.7368 59.6813 50.7368 59.6813 50.7368 59.6639C50.7368 59.6465 50.7368 59.6465 50.7368 59.6291C50.7368 59.6291 50.7368 59.6291 50.7368 59.6116C50.7368 59.5942 50.7368 59.5942 50.7368 59.5768C50.7892 59.3156 50.7018 59.0195 50.7018 58.828C50.7018 58.6712 50.7193 58.4274 50.6494 58.2707C50.6319 58.2184 50.5795 58.1836 50.5445 58.114L50.5271 58.0965C50.5271 57.8353 50.5445 57.4174 50.6144 56.8427C50.6319 56.7556 50.6319 56.6511 50.6494 56.564C50.7368 55.7281 50.5445 54.7703 50.3174 54.0737C50.23 53.795 50.2125 53.5686 50.2125 53.4119C50.7542 53.3597 51.1386 53.2552 51.226 53.0114C51.4357 52.4715 50.5271 49.1452 50.3174 48.3616C50.3873 48.3267 50.4572 48.3093 50.5096 48.2745V47.1425C50.5096 47.1251 50.5096 47.0903 50.5096 47.0728C50.5096 47.038 50.5096 46.9858 50.5096 46.9509C50.5096 46.9161 50.5096 46.8813 50.5096 46.8464C50.5096 46.533 50.5096 46.1324 50.4921 45.8364C50.4921 45.7667 50.4921 45.7145 50.4921 45.6622C50.4921 45.3139 50.5271 44.7741 50.5096 44.3735C51.261 44.1471 52.6414 43.6247 52.8336 43.5376C54.0393 42.9977 54.3014 42.6669 54.4936 42.0573C54.7382 41.6916 55.3149 39.8805 55.2974 39.4451C55.2974 39.4102 55.2799 39.3754 55.2624 39.358C55.2974 39.2709 55.3323 39.2013 55.3673 39.1316C55.4896 38.9575 55.6294 38.853 55.7168 38.6788C55.8565 38.4002 55.909 38.1564 55.9614 38.0867C56.0837 37.93 56.3283 37.6165 56.4157 37.512C56.573 37.4598 56.5904 37.4249 56.5904 37.4075ZM50.0902 42.4579C50.0728 42.4579 50.0553 42.4579 50.0553 42.4579C49.8456 42.4405 49.5835 42.4579 49.3214 42.4753C49.3214 42.4579 49.3214 42.4579 49.3214 42.4405C49.3039 42.3186 49.1816 42.2837 49.0768 42.2663C49.0593 42.2663 48.9719 42.2489 48.8671 42.2489C48.8671 42.2141 48.8671 42.1792 48.8496 42.1444C48.8496 42.0747 48.8496 41.9877 48.8671 41.918C48.9894 41.8658 49.1816 41.7613 49.2515 41.7264C49.898 41.4826 50.0203 41.2214 50.23 40.9079C50.3523 40.7338 50.3873 40.5596 50.5271 40.0024C50.5271 39.9675 50.5445 39.9501 50.5445 39.8979C50.6144 39.9501 50.7018 40.0198 50.7892 39.9675C50.8416 39.9501 50.9115 39.8979 50.9814 39.8456C50.929 40.0894 50.9464 40.2984 50.9989 40.4551C50.9989 40.5771 51.0163 40.699 51.0513 40.8034C51.0688 40.8905 51.1037 40.9602 51.1386 41.0473C51.1386 41.0647 51.1561 41.0473 51.1561 41.0298C51.0862 40.8731 51.0513 40.7164 51.0338 40.5596C51.1561 40.8731 51.3833 40.9776 51.3833 40.9776C50.9989 40.4551 51.5755 39.6192 51.5755 39.6018C51.2435 41.0298 51.5231 41.6742 51.8725 41.9528C51.925 41.9877 51.9599 42.0225 52.0123 42.0573C51.3833 42.3011 50.6144 42.5101 50.0902 42.4579ZM50.894 37.4424C50.929 37.6862 50.929 37.93 50.9115 38.1738C50.9115 38.2434 50.894 38.3131 50.894 38.3828C50.8765 38.0867 50.8416 37.7907 50.8066 37.512C50.8416 37.4946 50.8765 37.4772 50.894 37.4424ZM51.3483 38.7485C51.3309 38.7136 51.3134 38.6962 51.2959 38.6614C51.3134 38.6266 51.3134 38.6092 51.3309 38.5743C51.3833 38.435 51.4008 38.2957 51.4182 38.1564C51.4182 38.1041 51.4182 38.0345 51.4182 37.9822C51.4357 38.1912 51.4357 38.4524 51.3483 38.7485ZM51.2959 37.7732C51.3309 37.8777 51.3658 37.9996 51.3658 38.1215C51.3658 38.2609 51.3483 38.4002 51.3134 38.5395C51.2959 38.5743 51.2959 38.6266 51.2784 38.6614C51.1736 38.5917 51.0338 38.6092 50.894 38.6614V38.644H50.9115V38.5395H50.894C50.9115 38.4524 50.9115 38.3653 50.9115 38.2957C50.929 38.0693 50.929 37.8255 50.9115 37.5991C50.9115 37.5468 50.894 37.4946 50.894 37.4598C50.9115 37.4424 50.9115 37.4424 50.929 37.4249C50.9989 37.4424 51.0688 37.4598 51.1212 37.512C51.2085 37.5643 51.261 37.6687 51.2959 37.7732ZM52.1871 41.0647C52.1696 41.2562 52.1521 41.4652 52.1871 41.6568C52.2045 41.7439 52.2395 41.8658 52.3094 41.9354C52.2919 41.9354 52.2919 41.9528 52.2744 41.9528C52.1172 41.6916 52.0298 41.2214 52.2744 40.6467C52.222 40.786 52.2045 40.9254 52.1871 41.0647ZM53.2879 37.7384C53.3229 37.9822 53.3054 38.2434 53.2704 38.4873C53.218 38.7136 53.1481 38.94 53.0433 39.149C53.3054 38.4176 53.3229 37.721 53.1481 37.1637C53.218 37.3553 53.2704 37.5468 53.2879 37.7384ZM50.4048 36.3104C50.3873 36.3104 50.3873 36.293 50.3873 36.293C50.3873 36.3104 50.4048 36.3104 50.4048 36.3104ZM48.4302 35.0739C48.6574 35.0391 48.8671 35.0391 49.0942 35.0913C49.2864 35.1436 49.4961 35.2306 49.6534 35.3526C49.7757 35.4396 49.8805 35.5441 49.9679 35.666C49.7408 35.4222 49.3738 35.1784 48.8671 35.1262C48.7098 35.1087 48.5875 35.0913 48.3079 35.0913C48.3603 35.0913 48.3953 35.0739 48.4302 35.0739ZM45.0928 35.9621C45.1801 35.8576 45.285 35.7705 45.3723 35.666C45.4422 35.5964 45.5121 35.5093 45.582 35.457C45.6694 35.3874 45.7742 35.3177 45.8965 35.2829C46.0363 35.2132 46.1936 35.161 46.3334 35.1262C46.4732 35.0913 46.613 35.0913 46.7702 35.0739C46.9799 35.0739 47.1721 35.0739 47.3818 35.0913C46.945 35.0913 46.3683 35.1784 45.617 35.6138C45.3898 35.7531 45.1626 35.9621 44.9704 36.2233C44.953 36.2233 44.9355 36.2059 44.918 36.2059C44.9704 36.1014 45.0403 36.0317 45.0928 35.9621ZM41.9999 38.3305C41.9125 37.8603 41.9824 37.3727 42.1746 36.9373C41.965 37.4772 41.965 38.1912 42.1921 38.9226C42.1048 38.7311 42.0523 38.5395 41.9999 38.3305ZM43.8696 37.8255C43.8521 37.9996 43.8696 38.1912 43.9045 38.3653C43.9395 38.5221 43.9919 38.6788 44.0793 38.8181C44.0269 38.6962 43.9744 38.5569 43.9395 38.4176C43.9045 38.2783 43.8871 38.139 43.8871 37.9996C43.9045 37.7732 43.9744 37.5294 44.1317 37.3553L44.1492 37.3379C44.2016 37.303 44.2715 37.2682 44.3414 37.2682C44.3589 37.303 44.3938 37.3204 44.4288 37.3553C44.3414 37.7036 44.3064 38.0867 44.3589 38.4698C44.3938 38.7136 44.4288 38.9226 44.4812 39.1142V39.149C44.3414 39.1316 44.1841 39.1316 44.0968 39.2361C44.0793 39.1839 44.0618 39.1316 44.0269 39.0794C43.8521 38.5569 43.8172 38.139 43.8696 37.8255ZM44.8656 58.619C44.8656 58.619 44.8656 58.619 44.8831 58.619H44.8656Z" fill="white"/>
<path d="M42.8911 49.8418C42.8911 49.8418 42.7338 49.598 42.5416 49.4413C42.3669 49.2846 42.0698 49.1452 41.7728 48.9711C41.4757 48.8144 40.7244 47.247 40.4797 46.9335C40.2351 46.6201 39.7982 46.0802 39.7982 46.0802C39.7982 46.0802 39.5536 45.5752 39.309 45.0701C39.2915 45.0179 39.2566 44.983 39.2391 44.9308C39.309 44.8786 39.3614 44.8263 39.3964 44.7915C39.3964 44.7915 38.7673 42.6146 37.7014 42.4753C37.5441 42.423 37.2121 42.336 36.5307 42.2315C36.5132 42.1096 36.4433 42.0051 36.3385 41.918C36.4433 41.8832 36.5307 41.8484 36.5831 41.8484C37.2995 41.709 37.4917 41.4652 37.7713 41.1692C37.9286 41.0124 38.0159 40.8209 38.2606 40.281C38.2606 40.2636 38.278 40.2462 38.278 40.2113C38.3305 40.2984 38.4178 40.3855 38.5401 40.3507C38.9071 40.281 39.4837 39.6889 39.4138 39.1839C39.3789 38.9226 39.1517 38.9052 38.942 38.94C38.9595 38.9052 38.9595 38.853 38.9595 38.8181C39.0644 38.4873 39.1517 38.139 39.1867 37.7907C39.2216 37.3901 39.1867 36.9547 39.0294 36.5716C38.9945 36.4671 38.942 36.38 38.8721 36.2756L39.1168 36.3626C38.8022 35.7879 38.4178 35.457 38.0684 35.2829L38.5052 35.1087C38.5052 35.1087 38.5227 34.9172 38.1557 34.8475C37.8587 34.7779 37.6665 35.0043 37.5966 35.1087C37.5791 35.1087 37.5616 35.1087 37.5441 35.0913C37.5441 34.8998 37.8062 34.5863 37.8062 34.5863C37.5092 34.4818 37.4044 34.8475 37.3519 35.0565L37.3345 35.0391C37.2995 34.6385 37.1073 34.2206 37.1073 34.2206C37.0025 34.4121 36.9675 34.5689 36.9675 34.6908C36.9151 34.6385 36.8452 34.6037 36.7928 34.5515C36.7578 34.5166 36.7054 34.4992 36.653 34.4644C36.5307 34.3947 36.3909 34.3425 36.2686 34.3077C36.0938 34.2554 35.9016 34.238 35.7094 34.238C35.4997 34.238 35.29 34.2728 35.0804 34.3077C34.8881 34.3425 34.6959 34.3773 34.5037 34.4296C34.3115 34.4644 34.1368 34.5166 33.962 34.5689C33.7873 34.6211 33.6126 34.7082 33.4553 34.8127C33.3155 34.8998 33.1757 35.0217 33.0534 35.1436C32.9136 35.3003 32.7913 35.4919 32.7039 35.6834C32.3719 36.1711 32.1273 36.7632 32.1098 37.3901C32.0924 37.7036 32.1098 37.9822 32.1273 38.226C31.8827 38.139 31.6206 38.1215 31.5507 38.4176C31.4109 38.9749 31.97 39.7411 32.3894 39.8805C32.4942 39.9153 32.5816 39.8805 32.6515 39.8108C32.7039 40.1417 32.8088 40.4552 32.9486 40.6815C33.4553 41.5349 33.9446 41.5001 34.294 41.6742C34.3639 41.709 34.4513 41.7439 34.5212 41.7787C34.329 41.9006 34.2067 42.0747 34.1717 42.2489C33.997 42.2837 33.7873 42.3011 33.5951 42.3186C33.3679 42.3534 33.1408 42.3882 32.9486 42.5275C32.9486 42.5275 32.9486 42.5449 32.9486 42.5798C32.4942 42.9629 31.4284 44.7392 31.4633 44.7044C31.4982 44.7741 31.5332 44.8437 31.5856 44.9134C31.5507 44.983 31.5332 45.0527 31.4982 45.105C31.4982 45.1224 31.4808 45.1224 31.4808 45.1398C31.3585 45.401 31.2886 45.5926 31.2886 45.5926C31.2886 45.5926 30.8517 46.1847 30.6071 46.4982C30.3625 46.8116 29.5587 48.3267 29.2616 48.4835C28.9646 48.6402 28.6326 48.7621 28.4578 48.9014C28.2831 49.0582 28.021 49.4761 28.021 49.4761C28.021 49.4761 27.8288 49.6154 27.8288 49.7025C27.8288 49.7199 27.8288 49.7373 27.8637 49.7373C27.986 49.7896 28.1084 49.6503 28.1084 49.6503V49.6677L28.0909 49.9289C28.0734 49.9986 28.0734 50.0334 28.0909 50.0682C28.1258 50.1553 28.2481 50.0856 28.2831 50.0508C28.3355 49.9986 28.3705 49.8593 28.3705 49.8593C28.3705 49.8593 28.3705 49.8941 28.3705 49.9289C28.3705 49.9812 28.353 50.0508 28.353 50.1031C28.3355 50.2772 28.4229 50.2946 28.5102 50.2424C28.5452 50.225 28.5627 50.1901 28.5801 50.1901C28.5976 50.1553 28.5976 50.1553 28.65 50.0508C28.65 50.0334 28.6675 50.0334 28.6675 50.016C28.685 50.016 28.685 50.016 28.7025 50.016C28.7374 49.9986 28.8597 49.9637 28.8422 49.8941C28.8947 49.9289 28.9471 49.9289 28.9995 49.9115C29.0345 49.9115 29.0694 49.8941 29.0694 49.8418C29.1393 49.8767 29.1742 49.8592 29.2267 49.8244C29.2616 49.807 29.314 49.7722 29.314 49.6851C29.314 49.6677 29.314 49.6503 29.314 49.6329C29.349 49.6503 29.4014 49.6503 29.4364 49.6154C29.4364 49.6329 29.4364 49.6677 29.4189 49.6851C29.4189 49.7199 29.4014 49.7548 29.4014 49.7896C29.3315 50.1031 29.5062 50.1031 29.5587 50.0856C29.5761 50.0856 29.5761 50.0856 29.5761 50.0856L29.7159 49.8593C29.7684 49.7548 29.8907 49.0059 29.8907 49.0059C29.8907 49.0059 31.7953 47.1251 32.2496 46.5678C32.4069 46.3588 32.6166 46.0454 32.8262 45.7319C32.8787 45.7319 32.9136 45.7493 32.966 45.7493L33.0884 45.5403C33.0709 45.8538 33.0359 46.2718 33.001 46.7246C32.9835 47.0554 32.9486 47.4037 32.9311 47.7346C32.9311 47.752 32.9311 47.7869 32.9311 47.8043C32.9311 47.8217 32.9311 47.8391 32.9311 47.8565C32.8787 48.5357 32.8437 49.0756 32.8437 49.0756C32.9136 49.1104 32.9835 49.1278 33.0359 49.1452C33.0359 49.2323 33.0185 49.3368 33.001 49.4761C32.966 49.8244 32.9486 50.312 32.9311 50.8345C32.9136 51.4614 32.8612 52.1232 32.8612 52.6457C32.8612 52.8546 32.8612 52.9939 32.8612 53.1507V53.2203C32.8612 53.4642 32.8088 53.6557 32.8088 53.6557C32.8787 53.6731 33.0534 53.6557 33.1233 53.6731C33.1233 53.7776 33.1058 53.8647 33.1058 53.9692C33.0884 54.6484 33.0709 55.4843 33.1582 56.1809C33.2107 56.5466 33.1932 56.8078 33.2107 57.0342C33.2107 57.0516 33.2107 57.0516 33.2107 57.0691C33.2107 57.0865 33.2107 57.1039 33.2107 57.1039C33.2281 57.3999 33.2456 57.6263 33.2456 57.7134C33.2281 57.7134 33.2107 57.7134 33.1932 57.7134C33.1233 57.7308 32.966 57.8353 32.7913 57.9572C32.7738 57.9572 32.7738 57.9572 32.7738 57.9572C32.7214 57.9398 32.6515 57.9921 32.6166 58.0443C32.5991 58.0617 32.5991 58.0965 32.5991 58.114C32.5641 58.1488 32.5292 58.1662 32.4768 58.201C32.4593 58.201 32.4593 58.201 32.4418 58.201C32.4069 58.201 32.302 58.2359 32.2671 58.3055C32.2496 58.3229 32.2496 58.3404 32.2671 58.3578C32.0399 58.5319 31.8302 58.7061 31.7778 58.7409C31.638 58.8454 31.4109 59.0892 31.5332 59.3156C31.5332 59.3156 31.5332 59.3156 31.5507 59.333C31.5507 59.3678 31.5681 59.3853 31.5856 59.4201C31.638 59.4897 31.7429 59.5594 31.9001 59.6116C32.5467 59.8032 34.1018 59.1937 34.4338 59.0718C34.4688 59.0544 34.5037 59.0195 34.5037 58.9847C34.5037 58.9673 34.5037 58.9325 34.5037 58.8976C34.5037 58.8454 34.5037 58.8106 34.5037 58.7583C34.5736 58.4623 34.5387 57.905 34.4338 57.8527C34.4338 57.8353 34.4338 57.8005 34.4338 57.7831C34.4338 57.7482 34.4338 57.7134 34.4338 57.6786C34.4338 57.5741 34.4164 57.3303 34.4164 57.1735C34.4164 57.1387 34.4164 57.1213 34.4164 57.1039C34.4164 57.0691 34.4164 57.0342 34.4164 57.0342C34.4164 57.0168 34.7309 54.8574 34.7484 54.3523C34.7484 54.1608 34.7484 53.9344 34.7658 53.708C34.8357 53.6905 35.0105 53.708 35.0804 53.6905L35.0978 53.3074V53.2552L35.1153 53.2203L35.3949 50.9042C35.3949 50.8345 35.4997 50.8345 35.4997 50.9042L35.7968 53.1855V53.2203L35.8142 53.6383C35.9016 53.6731 36.1462 53.6035 36.2336 53.6209C36.2336 53.8647 36.4957 57.0342 36.4957 57.0516C36.4957 57.0691 36.4957 57.0865 36.4957 57.1213C36.4957 57.1735 36.4957 57.2606 36.4957 57.3303C36.4957 57.4696 36.4782 57.6263 36.4782 57.696C36.4782 57.7482 36.4782 57.8005 36.4782 57.8701C36.3734 57.9398 36.3385 58.4797 36.4084 58.7757C36.4084 58.828 36.4084 58.8802 36.4084 58.915C36.4084 58.9499 36.4084 58.9673 36.4084 59.0021C36.4084 59.037 36.4433 59.0718 36.4782 59.0892C36.8102 59.2111 38.3654 59.8206 39.0119 59.6291C39.1867 59.5768 39.274 59.5072 39.3265 59.4375C39.3439 59.4027 39.3614 59.3853 39.3614 59.3504C39.3789 59.333 39.3789 59.333 39.3789 59.333C39.5012 59.1066 39.2566 58.8802 39.1342 58.7583C39.0818 58.7061 38.8896 58.5493 38.645 58.3752C38.645 58.3578 38.645 58.3403 38.645 58.3229C38.61 58.2533 38.5227 58.2184 38.4702 58.2184C38.4702 58.2184 38.4528 58.2184 38.4353 58.2184C38.4004 58.1836 38.3479 58.1662 38.313 58.1314C38.313 58.114 38.313 58.0791 38.2955 58.0617C38.2606 58.0095 38.1907 57.9746 38.1382 57.9746H38.1208C37.946 57.8527 37.7888 57.7482 37.7189 57.7308C37.7014 57.7308 37.6839 57.7308 37.6665 57.7308C37.6665 57.6438 37.6665 57.4174 37.7014 57.1213C37.7014 57.1039 37.7014 57.1039 37.7014 57.0865C37.7014 57.0691 37.7014 57.0516 37.7014 57.0342C37.7189 56.8252 37.7014 56.564 37.7538 56.1809C37.8587 55.432 37.8237 54.5439 37.8062 53.8473C37.8062 53.795 37.8062 53.7428 37.8062 53.6731C37.8062 53.6731 37.8062 53.5164 37.8062 53.4467C37.8761 53.4293 38.2081 53.3597 38.2955 53.3248L37.8761 49.4239L37.8587 49.1104C37.9286 49.093 37.9985 49.0582 38.0858 49.0233C38.0858 49.0233 38.0684 48.4486 38.0159 47.7346C37.9985 47.7346 37.981 47.752 37.9635 47.752C37.8761 46.8639 37.7713 45.7841 37.7189 45.3836C37.7538 45.4881 37.7888 45.5577 37.7888 45.5577C37.8237 45.5577 37.8587 45.5403 37.8936 45.5403C38.1732 45.9931 38.5401 46.5852 38.7848 46.8987C39.2216 47.456 41.1437 49.3368 41.1437 49.3368C41.1437 49.3368 41.2136 50.1379 41.266 50.2424L41.4582 50.5384C41.4582 50.5384 41.5631 50.5907 41.633 50.5384C41.6679 50.5036 41.6854 50.4339 41.6679 50.2946C41.6505 50.225 41.6505 50.1727 41.633 50.1205C41.6679 50.1379 41.7029 50.1553 41.7553 50.1379C41.7553 50.1553 41.7553 50.1727 41.7553 50.1901C41.7553 50.2598 41.7902 50.2946 41.8427 50.3295C41.8951 50.3469 41.93 50.3817 41.9999 50.3469C42.0174 50.3991 42.0524 50.3991 42.0698 50.4165C42.1222 50.4339 42.1747 50.4339 42.2271 50.3991C42.2096 50.4688 42.3319 50.5036 42.3669 50.521C42.3844 50.521 42.4018 50.521 42.4368 50.5036C42.4542 50.5384 42.4542 50.5559 42.4542 50.5559C42.4542 50.5559 42.7338 50.7822 42.6639 50.4514C42.6465 50.3643 42.6465 50.2076 42.6465 50.2076C42.6465 50.2076 42.6814 50.3469 42.7338 50.3991C42.7688 50.4339 42.9086 50.4339 42.926 50.2772L42.8561 50.1727C42.8736 50.1901 42.8911 50.1901 42.9435 50.1727C43.0484 50.1205 42.8911 49.8418 42.8911 49.8418ZM39.2041 37.1289C39.274 37.5643 39.2041 38.0171 39.0993 38.4524C39.0818 38.5221 39.0644 38.5743 39.0469 38.644C39.0993 38.2957 39.0993 37.9474 39.1342 37.6165C39.2041 36.9199 38.977 36.4497 38.9246 36.3452C39.0644 36.589 39.1692 36.8502 39.2041 37.1289ZM33.0534 35.2829C33.2806 35.0043 33.5601 34.8127 33.8921 34.6734C34.0669 34.6037 34.2416 34.5515 34.4164 34.5166C34.6086 34.4818 34.7833 34.4296 34.9755 34.3947C35.1677 34.3599 35.3774 34.3251 35.5871 34.3077C35.7793 34.2902 35.989 34.3077 36.1812 34.3425C36.286 34.3599 36.4084 34.3947 36.5132 34.4296C36.0414 34.2902 35.1852 34.238 34.0319 34.656C33.6126 34.7953 33.1932 35.1262 32.8612 35.579C32.8961 35.4919 32.966 35.3874 33.0534 35.2829Z" fill="white"/>
<path d="M13.9722 25.3738C13.9722 27.8119 11.9976 29.7798 9.55131 29.7798C7.105 29.7798 5.13047 27.8119 5.13047 25.3738C5.13047 22.9357 7.105 20.9678 9.55131 20.9678C11.9802 20.9504 13.9722 22.9357 13.9722 25.3738Z" fill="#0088C5"/>
<path d="M29.4713 6.80937C29.4713 9.24747 27.4968 11.2154 25.0505 11.2154C22.6042 11.2154 20.6297 9.24747 20.6297 6.80937C20.6297 4.37128 22.6042 2.40338 25.0505 2.40338C27.4968 2.40338 29.4713 4.37128 29.4713 6.80937Z" fill="#0088C5"/>
<path d="M54.7208 4.40611C54.7208 6.84421 52.7463 8.8121 50.3 8.8121C47.8537 8.8121 45.8791 6.84421 45.8791 4.40611C45.8791 1.96801 47.8537 0.000113704 50.3 0.000113704C52.7288 -0.0173013 54.7208 1.96801 54.7208 4.40611Z" fill="#0088C5"/>
<path d="M79.0616 41.2388C79.0616 43.6769 77.0871 45.6448 74.6408 45.6448C72.1945 45.6448 70.2199 43.6769 70.2199 41.2388C70.2199 38.8007 72.1945 36.8328 74.6408 36.8328C77.0696 36.8154 79.0616 38.8007 79.0616 41.2388Z" fill="#0088C5"/>
<path d="M74.1515 17.8853C74.1515 20.3234 72.177 22.2913 69.7307 22.2913C67.2843 22.2913 65.3098 20.3234 65.3098 17.8853C65.3098 15.4472 67.2843 13.4793 69.7307 13.4793C72.1595 13.4619 74.1515 15.4472 74.1515 17.8853Z" fill="#0088C5"/>
<path d="M16.7505 45.8712C15.6322 42.9106 15.0381 39.7585 15.0381 36.5019C15.0381 29.4314 17.7989 22.7789 22.8313 17.7634C27.8463 12.7653 34.5212 9.9963 41.633 9.9963C48.7273 9.9963 55.4023 12.7479 60.4347 17.7634C65.4497 22.7615 68.228 29.414 68.228 36.5019C68.228 43.5724 65.4671 50.2249 60.4347 55.2405C60.3998 55.2753 60.3473 55.3101 60.3124 55.3624C60.3648 55.4494 60.4347 55.5365 60.4871 55.641C60.5396 55.7455 60.592 55.85 60.6269 55.9371C61.7103 56.2331 62.6015 57.0168 63.0383 58.1139C68.6299 52.6108 72.1071 44.9656 72.1071 36.5019C72.1071 19.7313 58.4777 6.14758 41.6505 6.14758C24.8233 6.14758 11.1939 19.7313 11.1939 36.5019C11.1939 38.226 11.3337 39.9153 11.6132 41.5523C12.9937 43.0848 14.776 44.5651 16.7505 45.8712Z" fill="#0088C5"/>
<path d="M58.0059 58.9324C59.561 56.7382 57.7438 54.5787 54.6509 57.3129C56.1537 55.5191 54.9655 53.29 52.6939 54.4394C51.1562 55.2231 50.5621 56.355 48.2556 57.7831C42.9436 61.0222 35.1678 59.5768 33.5252 57.9224C37.8937 59.0195 42.961 59.0369 44.0095 58.1139C45.4947 56.773 44.2366 55.0141 38.2781 54.9792C28.685 54.9444 15.9118 49.9637 11.9802 44.0775C15.3526 57.2606 27.357 67.013 41.6505 67.013C48.7448 67.013 55.28 64.6097 60.4697 60.5695C61.8501 59.3678 60.1901 56.773 58.0059 58.9324Z" fill="#0088C5"/>
<path d="M12.4694 67.013C12.3995 66.9434 12.3121 66.8911 12.2073 66.8737C12.1199 66.8389 12.0151 66.8389 11.9102 66.8389C11.8054 66.8563 11.718 66.8737 11.6132 66.9259C11.5258 66.9608 11.4385 67.0304 11.3686 67.1001C11.2812 67.1872 11.2288 67.2742 11.1938 67.3787C11.1589 67.4832 11.1414 67.5877 11.1414 67.7096C11.1414 67.8141 11.1764 67.9186 11.2113 68.0231C11.2462 68.1276 11.3161 68.2146 11.386 68.2843C11.4559 68.354 11.5433 68.4062 11.6481 68.4236C11.753 68.441 11.8404 68.4585 11.9452 68.441C12.05 68.4236 12.1374 68.4062 12.2248 68.354C12.3121 68.3017 12.3995 68.2495 12.4694 68.1798C12.5393 68.0927 12.6092 68.0057 12.6441 67.9012C12.6791 67.7967 12.6966 67.6922 12.6966 67.5877C12.6966 67.4832 12.6791 67.3787 12.6267 67.2742C12.6092 67.1698 12.5393 67.0827 12.4694 67.013Z" fill="#870E0E"/>
<path d="M26.5008 69.277L25.6796 68.8416C25.8019 68.5978 25.8718 68.354 25.8893 68.1102C25.9067 67.8664 25.8893 67.6225 25.8194 67.3962C25.7495 67.1698 25.6446 66.9608 25.4874 66.7866C25.3301 66.5951 25.1379 66.4383 24.9107 66.3164C24.7884 66.2468 24.6661 66.1945 24.5263 66.1423C24.3865 66.09 24.2642 66.0204 24.1244 65.9681C23.9846 65.9159 23.8448 65.8462 23.7225 65.794C23.5827 65.7417 23.4604 65.6721 23.3381 65.6198C23.2682 65.585 23.1983 65.5502 23.1284 65.4979C23.0585 65.4631 22.9886 65.4108 22.9187 65.376C22.7615 65.2889 22.6392 65.1844 22.5518 65.08C22.4644 64.9755 22.412 64.8536 22.3771 64.7317C22.3421 64.6098 22.3945 64.4356 22.4819 64.2615C22.5168 64.1918 22.5693 64.1221 22.6392 64.0699C22.7091 64.0176 22.8139 63.948 22.9362 63.8957L22.5693 63.5126C22.4644 63.5474 22.3771 63.5823 22.2897 63.6519C22.2023 63.7042 22.1324 63.7738 22.08 63.8435C22.0101 63.9132 21.9577 63.9828 21.9053 64.0699C21.8528 64.1395 21.8179 64.2266 21.7829 64.2963C21.6781 64.5053 21.6257 64.7317 21.6432 64.9581C21.6606 65.1844 21.7131 65.4108 21.8179 65.6372C21.9227 65.8462 22.0451 66.0378 22.2023 66.2119C22.3596 66.3861 22.5343 66.508 22.7091 66.6125C22.8663 66.6996 23.0411 66.7866 23.2158 66.8563C23.3905 66.9434 23.5827 67.0304 23.7575 67.1001C23.9322 67.1872 24.1244 67.2568 24.2992 67.3439C24.4739 67.431 24.6486 67.5181 24.8059 67.6051C24.9806 67.6922 25.0855 67.8315 25.1029 67.9883C25.1204 68.145 25.0855 68.3366 24.9806 68.5281L21.1539 66.5254L21.1364 66.4035L20.2977 65.8114C20.2977 65.7591 20.2977 65.7243 20.2977 65.6895C20.2977 65.6547 20.2802 65.6198 20.2802 65.585C20.2802 65.5153 20.2802 65.4457 20.2802 65.4108C20.2802 65.3586 20.2977 65.3064 20.3152 65.2541C20.3326 65.2019 20.3851 65.1148 20.4375 65.0103L20.2977 64.4356C20.1404 64.6968 20.0181 64.9232 19.9133 65.1148C19.8084 65.3064 19.7036 65.4805 19.6337 65.6198C19.5463 65.7591 19.4939 65.8985 19.424 66.003C19.3716 66.1074 19.3192 66.2119 19.2667 66.299C19.3017 66.1249 19.3366 65.9507 19.3541 65.8114C19.3716 65.6721 19.3541 65.5327 19.3192 65.4108C19.2842 65.2889 19.2318 65.167 19.1444 65.0625C19.0571 64.9581 18.9522 64.8536 18.8124 64.7491C18.7775 64.7317 18.7425 64.7142 18.7251 64.6968C18.6901 64.6794 18.6726 64.662 18.6202 64.6272C18.5853 64.6098 18.5328 64.5749 18.4979 64.5227C18.4629 64.4878 18.4105 64.453 18.3581 64.4182L14.7585 61.1616L14.6712 61.0571C14.6013 60.97 14.5663 60.9004 14.5663 60.8307C14.5663 60.7785 14.6013 60.7262 14.6362 60.674C14.6537 60.6391 14.6886 60.6217 14.7061 60.5869C14.7236 60.5521 14.7585 60.5346 14.776 60.4998C14.8109 60.465 14.8284 60.4302 14.8459 60.3953C14.8634 60.3605 14.8808 60.3257 14.8983 60.2734C14.9158 60.1689 14.9333 60.0644 14.9507 59.9425C14.9682 59.8206 14.9857 59.6639 14.9857 59.4723C14.7411 59.6813 14.5139 59.8729 14.3042 60.047C14.0945 60.2212 13.9023 60.3953 13.7101 60.5521C13.5179 60.7088 13.3432 60.8829 13.1684 61.0397C12.9937 61.1964 12.8189 61.3706 12.6267 61.5447C12.7141 61.3531 12.784 61.1442 12.8714 60.9004C12.9587 60.6565 13.0286 60.4127 13.0811 60.1689C13.1335 59.9251 13.1684 59.7161 13.1859 59.5246C13.1859 59.333 13.1684 59.1937 13.0985 59.1066C12.9937 58.9673 12.8539 58.8628 12.6966 58.7757C12.5394 58.6887 12.3821 58.6364 12.2074 58.5842C12.0326 58.5493 11.8579 58.5145 11.6657 58.5145C11.4735 58.5145 11.2987 58.5319 11.124 58.5668C11.2288 58.41 11.2987 58.2533 11.3512 58.0791C11.4036 57.905 11.4211 57.7308 11.4211 57.5567C11.4211 57.3825 11.3861 57.2084 11.3337 57.0516C11.2813 56.8949 11.1939 56.7382 11.0891 56.6163C10.9318 56.4421 10.792 56.2854 10.6697 56.1461L10.6347 56.059C10.5998 55.9545 10.5823 55.8674 10.6173 55.8152C10.6347 55.7629 10.6697 55.7281 10.7221 55.6933C10.7571 55.6759 10.792 55.6584 10.8269 55.641C10.8619 55.6236 10.8968 55.6062 10.9318 55.5888C10.9667 55.5714 11.0017 55.5365 11.0366 55.5191C11.0716 55.4843 11.1065 55.4669 11.124 55.4146C11.1764 55.3276 11.2288 55.2405 11.2813 55.1186C11.3337 55.0141 11.4036 54.8574 11.4735 54.6832C11.1764 54.8051 10.8968 54.9096 10.6522 55.0141C10.4076 55.1186 10.1629 55.2231 9.93579 55.3101C9.70863 55.3972 9.48147 55.5017 9.25432 55.5888C9.02716 55.6759 8.81748 55.7803 8.59032 55.8848C8.73011 55.7281 8.8699 55.554 9.02716 55.345C9.18442 55.136 9.34169 54.927 9.464 54.7355C9.58632 54.5265 9.69116 54.3349 9.76105 54.1433C9.83095 53.9692 9.84842 53.8125 9.81347 53.7254C9.76105 53.5512 9.67369 53.4119 9.55137 53.2726C9.42905 53.1507 9.30674 53.0288 9.14947 52.9417C8.99221 52.8372 8.83495 52.7676 8.66021 52.7153C8.48547 52.6631 8.31074 52.6108 8.136 52.5934C8.27579 52.4889 8.39811 52.3496 8.50295 52.2103C8.60779 52.0535 8.69516 51.8968 8.74758 51.7401C8.8 51.5659 8.83495 51.4092 8.83495 51.235C8.83495 51.0609 8.8 50.9041 8.74758 50.7474C8.73011 50.7126 8.73011 50.6952 8.71263 50.6603L8.85242 50.4862L8.71263 49.2497C8.74758 49.2323 8.78253 49.2149 8.83495 49.1801C8.88737 49.1452 8.93979 49.1278 8.97474 49.093C9.04463 49.0582 9.09705 49.0233 9.14947 48.9885C9.2019 48.9537 9.23684 48.9537 9.25432 48.9363C9.27179 48.9363 9.35916 48.9537 9.48147 48.9711C9.60379 49.0059 9.74358 49.0582 9.91832 49.1452C10.0756 49.2323 10.2503 49.3368 10.4425 49.4761C10.6173 49.6154 10.792 49.7896 10.9318 50.016C11.0716 50.225 11.1764 50.4862 11.2463 50.7997C11.3162 51.0957 11.3162 51.444 11.2463 51.8446C11.1764 52.2451 11.0366 52.6979 10.8095 53.2203C10.5823 53.7428 10.2503 54.3001 9.81347 54.9444L10.5474 54.6135C10.8095 54.3175 11.0541 53.9866 11.2638 53.6557C11.4909 53.3248 11.6657 52.9765 11.8229 52.6108C11.9802 52.2451 12.0851 51.8794 12.1549 51.4963C12.2248 51.1131 12.2423 50.73 12.1899 50.3295C12.1724 50.1553 12.12 49.9637 12.0326 49.7722C11.9453 49.5806 11.8404 49.389 11.7181 49.1975C11.5958 49.0059 11.4385 48.8318 11.2813 48.675C11.1065 48.5183 10.9318 48.3616 10.7396 48.2571C10.5474 48.1352 10.3377 48.0481 10.128 47.9958C9.91832 47.9436 9.70863 47.9262 9.49895 47.9436C9.37663 47.961 9.27179 47.9958 9.18442 48.0655C9.09705 48.1352 9.00969 48.2048 8.92232 48.2919C8.8699 48.3441 8.83495 48.3964 8.78253 48.4486C8.73011 48.5009 8.69516 48.5531 8.64274 48.6054L8.45053 46.8813L7.66421 47.8217L7.76905 48.7621L1.35621 49.4761C1.33874 49.4761 1.30379 49.4761 1.28632 49.4935C1.28632 49.4935 1.26884 49.4935 1.26884 49.511C1.25137 49.511 1.25137 49.5284 1.25137 49.5284L1.23389 49.5458C1.23389 49.5632 1.19895 49.5806 1.164 49.6329C1.12905 49.6677 1.09411 49.7025 1.05916 49.7548C1.02421 49.807 0.989263 49.8418 0.936842 49.8941C0.901895 49.9463 0.849474 49.9986 0.797053 50.0508C0.744632 50.1205 0.709684 50.1727 0.657263 50.225C0.604842 50.2946 0.552421 50.3469 0.5 50.4165L7.85642 49.598L7.89137 49.8593L7.73411 50.1553L7.68169 50.2598C7.68169 50.2772 7.68168 50.2772 7.66421 50.2946C7.64674 50.2946 7.64674 50.312 7.64674 50.3295C7.64674 50.3643 7.64674 50.3817 7.66421 50.3991C7.69916 50.5036 7.73411 50.5907 7.76905 50.6778C7.804 50.7648 7.83895 50.8519 7.85642 50.9216C7.8739 51.0086 7.90884 51.0783 7.92632 51.1654C7.94379 51.235 7.96126 51.3221 7.96126 51.3918C7.96126 51.5311 7.94379 51.653 7.89137 51.7923C7.83895 51.9142 7.71663 52.0535 7.55937 52.2103C7.472 52.1058 7.34969 52.0013 7.19242 51.9142C7.03516 51.8271 6.86042 51.7575 6.66821 51.7052C6.476 51.653 6.30126 51.6182 6.12653 51.6182C5.95179 51.6007 5.79453 51.6182 5.67221 51.6704C5.5499 51.7227 5.42758 51.7749 5.30526 51.862C5.20042 51.9491 5.09558 52.0361 5.02568 52.1406C4.93832 52.2451 4.8859 52.367 4.86842 52.4889C4.85095 52.6108 4.85095 52.7501 4.90337 52.8895C4.93832 52.994 4.99074 53.081 5.07811 53.1855C5.148 53.2726 5.23537 53.3423 5.34021 53.4119C5.44505 53.4816 5.5499 53.5338 5.65474 53.5861C5.75958 53.6383 5.8819 53.6557 5.98674 53.6731C5.86442 53.8473 5.75958 54.0214 5.68968 54.2304C5.61979 54.422 5.61979 54.631 5.70716 54.8574C5.812 55.1534 5.96926 55.3624 6.19642 55.4495C6.40611 55.5365 6.68568 55.5191 7.00021 55.4146C7.17495 55.3624 7.31474 55.2753 7.41958 55.1534C7.52442 55.0315 7.62926 54.9096 7.69916 54.7703C7.76905 54.6484 7.82147 54.5091 7.8739 54.3872C7.92632 54.2478 7.97874 54.1259 8.01368 53.9866C8.06611 53.9692 8.136 53.9866 8.18842 54.004C8.25832 54.0388 8.31074 54.0737 8.38063 54.1085C8.43305 54.1608 8.48547 54.213 8.5379 54.2652C8.59032 54.3175 8.62526 54.3871 8.64274 54.4394C8.67769 54.5439 8.66021 54.6832 8.59032 54.8574C8.52042 55.0315 8.41558 55.2057 8.29326 55.3798C8.17095 55.554 8.03116 55.7107 7.89137 55.85C7.75158 55.9893 7.61179 56.0764 7.50695 56.1112L3.20842 57.5567C3.12105 57.7482 3.05116 57.9224 2.98126 58.0791C2.92884 58.2184 2.87642 58.3404 2.824 58.4448C2.78905 58.5667 2.77158 58.6364 2.77158 58.6538L9.72611 56.2157L10.5299 57.4348C10.5474 57.4522 10.5474 57.487 10.5648 57.5044C10.6173 57.6263 10.6347 57.7657 10.6173 57.905C10.5998 58.0443 10.5474 58.2184 10.4425 58.41C10.3377 58.3404 10.1804 58.2881 10.0057 58.2533C9.83095 58.2184 9.63874 58.2184 9.44653 58.2359C9.25432 58.2533 9.07958 58.2707 8.88737 58.3229C8.71263 58.3752 8.57284 58.4274 8.468 58.5145C8.36316 58.6016 8.27579 58.7061 8.18842 58.8106C8.10105 58.9325 8.04863 59.037 8.01368 59.1763C7.97874 59.2982 7.96126 59.4375 7.97874 59.5594C7.99621 59.6987 8.04863 59.8206 8.136 59.9251C8.2059 60.0122 8.29326 60.0819 8.39811 60.1515C8.50295 60.2038 8.60779 60.256 8.71263 60.2908C8.83495 60.3257 8.93979 60.3431 9.06211 60.3431C9.18442 60.3431 9.30674 60.3431 9.41158 60.3257C9.34169 60.5172 9.30674 60.7262 9.30674 60.9352C9.30674 61.1442 9.37663 61.3357 9.5339 61.5273C9.74358 61.7711 9.95326 61.9104 10.1804 61.9278C10.4076 61.9453 10.6697 61.8408 10.9318 61.6318C11.0716 61.5273 11.1764 61.388 11.2463 61.2487C11.3162 61.1093 11.3686 60.9526 11.3861 60.7959C11.4036 60.6565 11.4211 60.5172 11.4211 60.3779C11.4211 60.2386 11.4211 60.0993 11.4211 59.9425C11.4735 59.9077 11.5259 59.9077 11.5958 59.9077C11.6657 59.9077 11.7356 59.9251 11.8055 59.9425C11.8754 59.9599 11.9453 59.9948 12.0152 60.0296C12.0851 60.0644 12.1375 60.1167 12.1724 60.1689C12.2423 60.256 12.2773 60.3953 12.2598 60.5695C12.2423 60.761 12.2074 60.9526 12.1549 61.1616C12.1025 61.3706 12.0152 61.5621 11.9278 61.7363C11.8404 61.9104 11.7356 62.0323 11.6482 62.102L8.10105 64.8187C8.04863 64.8536 7.99621 64.8884 7.94379 64.9058C7.92632 64.9058 7.92632 64.9232 7.90884 64.9232C7.89137 64.9232 7.8739 64.9406 7.85642 64.9406C7.85642 64.9232 7.85642 64.9058 7.85642 64.8536C7.85642 64.8013 7.83895 64.7665 7.83895 64.7142C7.83895 64.662 7.82147 64.6098 7.82147 64.5401C7.804 64.4182 7.78653 64.2789 7.75158 64.1396C7.71663 64.0002 7.66421 63.8609 7.59432 63.7564C7.48947 63.5997 7.36716 63.4604 7.22737 63.3559C7.08758 63.234 6.91284 63.1469 6.75558 63.0947C6.58084 63.0424 6.40611 63.025 6.23137 63.0424C6.03916 63.0598 5.86442 63.1295 5.68968 63.234C5.49747 63.3559 5.35768 63.5126 5.27032 63.6693C5.18295 63.8435 5.148 64.0176 5.13053 64.1918C5.13053 64.3659 5.16547 64.5575 5.2179 64.7317C5.28779 64.9058 5.37516 65.08 5.48 65.2193C5.58484 65.3586 5.68968 65.4805 5.812 65.5676C5.93432 65.6547 6.05663 65.7243 6.19642 65.7766C6.31874 65.8288 6.44105 65.8636 6.56337 65.8811C6.68568 65.8985 6.808 65.9333 6.94779 65.9507C6.94779 66.1074 6.94779 66.3164 6.91284 66.5602C6.89537 66.804 6.86042 67.0653 6.808 67.3265C6.75558 67.5877 6.70316 67.8489 6.65074 68.0753C6.58084 68.3191 6.52842 68.5107 6.476 68.6674V68.859L6.70316 68.9287C6.82547 68.859 6.94779 68.7545 7.05263 68.6152C7.2099 68.4585 7.29726 68.2843 7.38463 68.1102C7.472 67.936 7.5419 67.7445 7.61179 67.5355C7.68168 67.3265 7.73411 67.1349 7.76905 66.9259C7.82147 66.7344 7.85642 66.5428 7.8739 66.3687C7.89137 66.1945 7.90884 66.2293 7.92632 66.1074C7.96126 66.0726 8.01369 66.0378 8.04863 65.9855C8.06611 65.9681 8.08358 65.9507 8.10105 65.9333L8.18842 65.8636C8.18842 65.8636 8.18842 65.8636 8.2059 65.8636L13.8848 61.388L15.0381 62.52L17.2747 64.5575L17.0651 64.8013C16.3661 64.4878 15.6497 64.244 14.8983 64.0699C14.1469 63.8957 13.3606 63.7738 12.5568 63.6868L12.3297 65.3412C12.5394 65.5502 12.7141 65.7766 12.8364 65.9855C12.9762 66.1945 13.0811 66.4209 13.1509 66.6125C13.2208 66.8215 13.2733 67.0304 13.2907 67.2394C13.3082 67.4484 13.3257 67.64 13.3082 67.8315C13.3082 68.0231 13.2733 68.2147 13.2383 68.4062C13.2034 68.5804 13.1684 68.7719 13.116 68.9287C13.0636 69.1028 13.0286 69.2596 12.9762 69.4163C12.9238 69.573 12.8888 69.7123 12.8714 69.8343C12.8714 69.9213 12.8714 69.991 12.8539 70.0432C12.8539 70.0955 12.8539 70.1303 12.8539 70.1826C12.8539 70.2174 12.8539 70.2696 12.8714 70.3045C12.8714 70.3393 12.9063 70.4264 12.9413 70.5309L17.9038 65.1322L18.795 65.9507C18.8124 66.0204 18.8299 66.09 18.8124 66.1597C18.8124 66.299 18.76 66.4557 18.6901 66.6125C18.6202 66.7692 18.5154 66.9434 18.3931 67.1001L15.2478 71.5061C15.2827 71.7151 15.3002 71.8892 15.3352 72.046C15.3526 72.1853 15.3876 72.3072 15.4051 72.4291C15.4225 72.551 15.4575 72.6207 15.4749 72.6381L19.8608 66.5428L20.3676 66.8911L20.42 67.1001L21.2937 67.5529L21.3112 67.5703L22.2722 68.0753C22.2897 68.1102 22.3072 68.145 22.3246 68.1624C22.3421 68.1798 22.3596 68.2147 22.3596 68.2321C22.3771 68.2495 22.3945 68.2843 22.3945 68.3017C22.412 68.3366 22.4295 68.3714 22.4469 68.3888C22.4644 68.4062 22.4644 68.4411 22.4644 68.4585C22.3771 68.4585 22.2897 68.4585 22.2198 68.4411C22.1324 68.4411 22.0451 68.4236 21.9752 68.4236C21.8703 68.4236 21.7829 68.4236 21.6781 68.4236C21.5733 68.4236 21.4859 68.4411 21.3811 68.4585C21.1888 68.4933 20.9966 68.563 20.8219 68.65C20.6472 68.7545 20.5074 68.9113 20.3851 69.1202C20.3152 69.2421 20.2802 69.364 20.2802 69.486C20.2802 69.6079 20.2977 69.7123 20.3326 69.7994C20.3851 69.9039 20.4375 69.991 20.5248 70.0606C20.6122 70.1303 20.6996 70.2 20.8044 70.2522C20.9442 70.3219 21.1015 70.3741 21.2762 70.3741C21.4509 70.3741 21.6257 70.3567 21.8004 70.3045C21.9752 70.2522 22.1324 70.1826 22.2897 70.0781C22.447 69.9736 22.5518 69.8517 22.6392 69.7123C22.8139 69.7472 22.9537 69.8343 23.0585 69.9562C23.1634 70.0781 23.2333 70.2348 23.2857 70.3915C23.3206 70.5483 23.3206 70.705 23.2857 70.8617C23.2507 71.0185 23.1808 71.1404 23.0585 71.2449C22.9013 71.3842 22.7265 71.4713 22.5168 71.5061C22.3246 71.5409 22.1324 71.5583 21.9227 71.5409C21.7305 71.5235 21.5383 71.4713 21.3461 71.419C21.1539 71.3494 20.9792 71.2797 20.8219 71.1926C20.5248 71.0359 20.2453 70.8269 19.9832 70.5831C19.7211 70.3219 19.4764 69.991 19.2493 69.5556L19.1095 71.8544C19.5114 72.2027 19.8783 72.5684 20.2103 72.9515C20.5598 73.3172 20.8743 73.7178 21.1539 74.1532C21.4335 74.5711 21.6781 75.0413 21.9053 75.529C22.115 76.0166 22.2897 76.5739 22.412 77.166L22.7789 75.8598L22.6392 75.3548C22.6042 75.2155 22.5518 75.0588 22.4994 74.902C22.4469 74.7453 22.3945 74.5885 22.3421 74.4666C22.2547 74.2751 22.2023 74.1183 22.1324 73.9964C22.08 73.8571 22.0101 73.7352 21.9402 73.6133C21.8703 73.4914 21.8004 73.3695 21.7131 73.2302C21.6257 73.1083 21.5034 72.9515 21.3811 72.7774C21.5383 72.8122 21.6781 72.847 21.8354 72.8645C21.9926 72.8819 22.1324 72.8819 22.2897 72.8819C22.4295 72.8645 22.5693 72.847 22.7265 72.8122C22.8663 72.7774 23.0236 72.7077 23.1634 72.6207C23.3032 72.5336 23.4429 72.4291 23.5653 72.2898C23.6876 72.1504 23.8099 71.9763 23.9147 71.7847C24.0371 71.5583 24.1069 71.3668 24.1419 71.1578C24.1768 70.9662 24.1943 70.7747 24.1943 70.6005C24.1768 70.4264 24.1594 70.2696 24.0895 70.1129C24.0371 69.9562 23.9672 69.8168 23.8973 69.6949C23.8274 69.573 23.7575 69.4511 23.6701 69.3466C23.5827 69.2421 23.5128 69.1377 23.4429 69.0506C23.3905 68.9809 23.3206 68.9113 23.2857 68.8416C23.2333 68.7894 23.2158 68.7197 23.2158 68.6849C23.2158 68.6674 23.2158 68.65 23.2158 68.6326C23.2158 68.6152 23.1983 68.5978 23.1983 68.5978C23.1983 68.5804 23.1983 68.5804 23.1808 68.563L26.8154 70.4786L26.5008 69.277ZM7.01769 64.8884C6.98274 64.9058 6.91284 64.9232 6.84295 64.8884C6.77305 64.871 6.68569 64.8361 6.59832 64.7839C6.51095 64.7317 6.44105 64.662 6.35368 64.5923C6.28379 64.5227 6.2139 64.4356 6.17895 64.3659C6.12653 64.2615 6.09158 64.1744 6.09158 64.0873C6.09158 64.0176 6.144 63.948 6.23137 63.8957C6.30126 63.8435 6.37116 63.8435 6.44105 63.8609C6.51095 63.8783 6.58084 63.9132 6.63326 63.9654C6.70316 64.0176 6.75558 64.0699 6.79053 64.1396C6.84295 64.2092 6.8779 64.2615 6.91284 64.3137C6.93032 64.3485 6.96526 64.3834 6.98274 64.4356C7.01769 64.4878 7.03516 64.5401 7.05263 64.6098C7.07011 64.662 7.08758 64.7142 7.07011 64.7839C7.08758 64.8187 7.07011 64.8536 7.01769 64.8884ZM13.8499 68.3191C13.9897 67.7619 14.0246 67.222 13.9722 66.6821C13.9198 66.1423 13.78 65.6198 13.5703 65.1148C14.0421 65.167 14.4964 65.2367 14.9333 65.3412C15.3701 65.4457 15.7895 65.5676 16.2263 65.7591L13.8499 68.3191Z" fill="#870E0E"/>
<path d="M30.9391 76.8873C30.8867 76.8003 30.8168 76.7132 30.7294 76.6609C30.6421 76.5913 30.5547 76.5564 30.4499 76.539C30.345 76.5216 30.2576 76.5216 30.1528 76.539C30.048 76.5564 29.9606 76.6087 29.8907 76.6609C29.8033 76.7132 29.7334 76.7828 29.681 76.8699C29.6286 76.957 29.5762 77.0441 29.5587 77.1486C29.5412 77.2705 29.5412 77.375 29.5587 77.4794C29.5762 77.5839 29.6286 77.6884 29.681 77.7755C29.7334 77.8626 29.8208 77.9496 29.9082 78.0193C29.9955 78.089 30.1004 78.1238 30.2052 78.1586C30.3101 78.176 30.3974 78.176 30.5023 78.1412C30.6071 78.1064 30.6945 78.0716 30.7644 78.0019C30.8343 77.9496 30.9042 77.8626 30.9741 77.7929C31.0265 77.7058 31.0789 77.6188 31.0964 77.5143C31.1139 77.4098 31.1139 77.2879 31.0964 77.1834C31.0265 77.0789 30.9915 76.9744 30.9391 76.8873Z" fill="#870E0E"/>
<path d="M35.0979 71.5061L28.6501 70.1129L29.3141 71.1578L33.333 72.0111L33.2631 72.3246C32.4943 72.4117 31.7604 72.5684 31.0265 72.7948C30.2926 73.0212 29.5587 73.2998 28.8073 73.6481L29.4539 75.1981C29.7509 75.2851 29.9955 75.3722 30.2227 75.4941C30.4499 75.616 30.6421 75.7379 30.8168 75.8947C30.9915 76.034 31.1313 76.1907 31.2536 76.3475C31.376 76.5042 31.4808 76.6783 31.5682 76.8525C31.6555 77.0266 31.7429 77.2008 31.8128 77.3749C31.8827 77.5491 31.9351 77.7232 31.9875 77.8974C32.04 78.0715 32.0749 78.2283 32.1273 78.385C32.1623 78.5417 32.1972 78.6811 32.2496 78.803C32.2846 78.8726 32.3195 78.9423 32.337 78.9771C32.3545 79.0294 32.3894 79.0642 32.3894 79.099C32.4069 79.1339 32.4419 79.1687 32.4593 79.2035C32.4943 79.2383 32.5467 79.2906 32.6341 79.3602L34.1543 72.2027L34.5736 72.2898L35.2027 72.4291L35.6745 72.4465L43.4503 72.8122L42.5941 71.8892L35.0979 71.5061ZM32.2846 76.957C32.1273 76.3997 31.8827 75.9121 31.5507 75.4767C31.2187 75.0413 30.8343 74.6582 30.3974 74.3273C30.8343 74.1358 31.2711 73.9616 31.673 73.8223C32.0924 73.683 32.5292 73.5959 33.001 73.5262L32.2846 76.957Z" fill="#870E0E"/>
<path d="M41.9475 75.6508C41.93 75.4767 41.8951 75.32 41.8427 75.1632C41.7029 74.7453 41.5107 74.3796 41.2486 74.0661C40.9865 73.7526 40.6894 73.5088 40.3225 73.3347C39.9555 73.1605 39.5886 73.056 39.1867 73.0386C38.977 73.0212 38.7673 73.056 38.5576 73.1257C38.3479 73.1953 38.1732 73.2824 37.9985 73.4217C37.8237 73.561 37.7014 73.7178 37.5966 73.9093C37.4917 74.1009 37.4393 74.3099 37.4218 74.5537C37.4043 74.7453 37.4218 74.9368 37.4742 75.111C37.5267 75.2851 37.5966 75.4419 37.6839 75.5812C37.7713 75.7205 37.9111 75.825 38.0509 75.9121C38.2081 75.9991 38.3829 76.0514 38.5926 76.0514C38.7673 76.0514 38.9246 76.0514 39.0644 76.0166C39.2041 75.9817 39.3265 75.9121 39.4313 75.8424C39.5361 75.7553 39.6235 75.6508 39.6759 75.5115C39.7458 75.3722 39.7808 75.2155 39.7808 75.0239C39.7808 74.8846 39.7808 74.7627 39.7458 74.6234C39.7283 74.5015 39.6759 74.3621 39.606 74.2576C39.6585 74.2576 39.7109 74.2402 39.7633 74.2402C39.8157 74.2402 39.8681 74.2228 39.9206 74.2402C40.0778 74.2402 40.2526 74.3099 40.4098 74.4144C40.5671 74.5189 40.7069 74.6582 40.8467 74.8323C40.969 75.0065 41.0738 75.1981 41.1262 75.407C41.1961 75.616 41.2136 75.825 41.1787 76.0514C41.1437 76.2778 41.0738 76.4868 40.934 76.6957C40.8117 76.9047 40.6545 77.0789 40.4797 77.2182C40.305 77.3749 40.0953 77.4794 39.8856 77.5665C39.6759 77.6536 39.4662 77.6884 39.2566 77.671C38.9071 77.6536 38.5751 77.5665 38.278 77.4098C37.981 77.253 37.7189 77.044 37.4742 76.8002C37.2296 76.5564 37.0025 76.2604 36.8102 75.9469C36.618 75.6334 36.4258 75.2851 36.2686 74.9368C36.1113 74.5885 35.954 74.2402 35.8317 73.8919C35.7094 73.5436 35.5871 73.2127 35.4822 72.8993L34.9056 72.6206C34.993 72.9864 35.0978 73.4043 35.2201 73.8571C35.3425 74.3099 35.4997 74.7801 35.657 75.2503C35.8317 75.7205 36.0239 76.1733 36.2511 76.6261C36.4782 77.0789 36.7229 77.4794 37.0199 77.8277C37.2995 78.176 37.6315 78.4721 37.981 78.6985C38.3305 78.9249 38.7324 79.0468 39.1517 79.0642C39.5012 79.0816 39.8157 79.0294 40.1302 78.9249C40.4448 78.803 40.7243 78.6462 40.969 78.4198C41.0913 78.3153 41.1961 78.2108 41.2835 78.0889L41.5107 80.649C41.3884 80.44 41.2311 80.2484 41.0389 80.0743C40.8467 79.9001 40.6545 79.7434 40.4448 79.6041C40.2351 79.4821 40.0079 79.3777 39.7633 79.308C39.5361 79.2383 39.2915 79.2209 39.0644 79.2558C38.8022 79.2906 38.5751 79.3428 38.3829 79.4473C38.1732 79.5518 38.0159 79.6737 37.8761 79.8304C37.7364 79.9872 37.649 80.1787 37.5791 80.4051C37.5267 80.6315 37.5092 80.8753 37.5441 81.154C37.5616 81.3455 37.614 81.5023 37.7014 81.659C37.7888 81.7983 37.8761 81.9202 37.9985 82.0073C38.1208 82.0944 38.2606 82.1641 38.4178 82.1989C38.5751 82.2337 38.7323 82.2511 38.9071 82.2337C39.1867 82.1989 39.3964 82.077 39.5361 81.868C39.6759 81.659 39.7283 81.4152 39.6934 81.1366C39.6759 80.945 39.606 80.7534 39.5187 80.5967C39.4313 80.44 39.309 80.3006 39.1692 80.1787C39.1867 80.1787 39.2041 80.1613 39.2216 80.1613C39.2391 80.1613 39.2566 80.1613 39.274 80.1613C39.5536 80.1265 39.8157 80.1613 40.0778 80.2484C40.3225 80.3355 40.5671 80.4748 40.7768 80.649C40.9865 80.8231 41.1787 81.0321 41.3534 81.2585C41.5281 81.5023 41.6505 81.7461 41.7728 81.9899C41.8077 82.0596 41.8252 82.1292 41.8601 82.1815C41.8951 82.2337 41.9126 82.286 41.93 82.3382C41.9475 82.3905 41.965 82.4427 41.9825 82.4949C41.9999 82.5472 41.9999 82.6343 42.0174 82.7388C42.1048 82.791 42.1921 82.8432 42.262 82.8781C42.3319 82.9129 42.4018 82.9477 42.4717 82.9651C42.5416 83 42.594 83 42.6465 83L41.9475 75.6508Z" fill="#870E0E"/>
<path d="M47.1547 78.8552C47.1023 78.6811 47.0324 78.5243 46.9275 78.4024C46.8227 78.2805 46.7004 78.176 46.5431 78.1064C46.3858 78.0367 46.1936 78.0019 45.9665 78.0193C45.6694 78.0367 45.4597 78.1412 45.3199 78.3154C45.1802 78.4895 45.1277 78.7333 45.1452 79.0294C45.1627 79.1513 45.1802 79.2558 45.2326 79.3603C45.285 79.4473 45.3549 79.5344 45.4248 79.5866C45.4947 79.6563 45.5995 79.6911 45.6869 79.726C45.7917 79.7608 45.8966 79.7608 46.0014 79.7608C46.0713 79.7608 46.1587 79.7434 46.2286 79.7086C46.2985 79.6911 46.3684 79.6737 46.4557 79.6563C46.5082 79.6563 46.5256 79.6737 46.5256 79.726C46.5256 79.7782 46.5256 79.8305 46.5256 79.8653C46.5431 79.9872 46.5082 80.1265 46.4557 80.2658C46.4033 80.4052 46.3159 80.5445 46.2286 80.6664C46.1237 80.7883 46.0189 80.9102 45.8966 81.0321C45.7743 81.1366 45.6519 81.2411 45.5122 81.3107L45.7393 81.7287C45.9315 81.6416 46.1237 81.5023 46.3159 81.3281C46.5082 81.154 46.6654 80.9624 46.8052 80.7535C46.945 80.5445 47.0498 80.3181 47.1372 80.0917C47.2246 79.8653 47.2421 79.6389 47.2246 79.4125C47.2421 79.2209 47.2071 79.0294 47.1547 78.8552Z" fill="#870E0E"/>
<path d="M60.6968 75.7379C60.6444 75.6334 60.5745 75.5464 60.4872 75.4767C60.3998 75.4071 60.3124 75.3548 60.2076 75.32C60.1027 75.2851 59.9979 75.2677 59.893 75.2852C59.7882 75.2852 59.6834 75.32 59.596 75.3722C59.5086 75.4245 59.4213 75.4767 59.3688 75.5638C59.2989 75.6509 59.264 75.7379 59.2465 75.825C59.229 75.9121 59.2116 76.0166 59.2291 76.1211C59.2465 76.2256 59.264 76.3126 59.3164 76.4171C59.3688 76.5216 59.4387 76.6087 59.5261 76.6784C59.6135 76.748 59.7183 76.8003 59.8232 76.8351C59.928 76.8699 60.0328 76.8873 60.1552 76.8873C60.26 76.8873 60.3648 76.8525 60.4697 76.8003C60.557 76.748 60.6269 76.6958 60.6968 76.6087C60.7493 76.5216 60.8017 76.4345 60.8192 76.3475C60.8366 76.2604 60.8541 76.1559 60.8366 76.0514C60.7667 75.9295 60.7318 75.825 60.6968 75.7379Z" fill="#870E0E"/>
<path d="M66.0263 65.0103L64.8206 64.7839L60.2425 68.145L55.3324 70.1651L46.9975 71.3842L47.976 72.133L52.0474 71.5409L52.0998 71.9415C51.8027 72.0982 51.5057 72.2724 51.1737 72.4639C50.8592 72.6729 50.5446 72.8819 50.2301 73.1257C49.9156 73.3695 49.6185 73.6133 49.339 73.8745C49.0594 74.1358 48.7973 74.397 48.5701 74.6756L49.7583 75.825C50.1952 75.8076 50.5971 75.8598 50.964 75.9818C51.331 76.0862 51.663 76.2604 51.96 76.4868C52.2571 76.7132 52.5366 76.9744 52.7813 77.2879C53.0259 77.6013 53.2356 77.9496 53.4278 78.3502C53.4977 78.4024 53.5676 78.4373 53.62 78.4721C53.6724 78.5069 53.7249 78.5243 53.7773 78.5418C53.8297 78.5592 53.8646 78.5766 53.9171 78.5592L53.0783 72.9167C53.0958 72.9167 53.1133 72.8993 53.1133 72.8993C53.1307 72.8993 53.1307 72.8993 53.1482 72.8993C53.3579 72.847 53.5676 72.8645 53.7947 72.9167C54.0219 72.969 54.2141 73.0734 54.4063 73.1954C54.5985 73.3173 54.7558 73.4914 54.8956 73.683C55.0354 73.8745 55.1227 74.0835 55.1577 74.3099C55.0529 74.2577 54.948 74.2054 54.8432 74.1532C54.7209 74.1183 54.616 74.1009 54.4937 74.1183C54.4238 74.1358 54.3539 74.1532 54.284 74.1706C54.2141 74.2054 54.1442 74.2228 54.0743 74.2577C53.9695 74.3796 53.8996 74.5015 53.8297 74.6582C53.7598 74.7975 53.7423 74.9543 53.7773 75.1284C53.7947 75.2677 53.8472 75.3896 53.9171 75.4941C53.987 75.5986 54.0743 75.6857 54.1792 75.7554C54.284 75.825 54.3889 75.8773 54.5112 75.9121C54.6335 75.9469 54.7558 75.9469 54.8781 75.9295C55.0703 75.8947 55.2276 75.8424 55.3674 75.7205C55.5072 75.616 55.612 75.4767 55.6819 75.32C55.7518 75.1632 55.8042 75.0065 55.8392 74.8149C55.8566 74.6408 55.8566 74.4492 55.8392 74.2751C55.7867 73.9442 55.6819 73.6133 55.4897 73.2824C55.315 72.9515 55.0878 72.6729 54.8257 72.4117C54.5636 72.1679 54.2665 71.9589 53.9345 71.837C53.6025 71.6977 53.2705 71.6628 52.9385 71.7151H52.9211L52.8686 71.3842L55.4722 71.0011L55.4897 71.0185L55.5421 71.0011L56.3459 70.6702L59.299 69.4511L59.4213 69.7472C58.8446 70.2348 58.303 70.7921 57.8312 71.4016C57.3594 72.0111 56.9051 72.6555 56.4857 73.3521L57.9011 74.2577C58.1806 74.1532 58.4602 74.1009 58.7049 74.0661C58.9495 74.0313 59.1941 74.0313 59.4213 74.0661C59.6484 74.0835 59.8581 74.1358 60.0503 74.2054C60.2425 74.2751 60.4347 74.3447 60.6095 74.4318C60.7842 74.5189 60.9415 74.6234 61.0987 74.7279C61.256 74.8324 61.3958 74.9543 61.5356 75.0588C61.6754 75.1807 61.7977 75.2851 61.92 75.3896C62.0423 75.4941 62.1472 75.5812 62.252 75.6683C62.3219 75.7031 62.3918 75.7379 62.4267 75.7728C62.4792 75.7902 62.5141 75.825 62.5491 75.8424C62.584 75.8598 62.619 75.8773 62.6714 75.8773C62.7063 75.8947 62.7937 75.8947 62.8985 75.9121L60.1202 69.1551L60.5221 68.9983L60.5745 69.0158L60.6794 68.9287L61.3259 68.4585L64.0518 66.4557L64.244 66.7344C63.8072 67.3613 63.4402 68.0231 63.1257 68.7197C62.8112 69.4163 62.5316 70.1477 62.3044 70.9488L63.8945 71.5235C64.1741 71.3494 64.4537 71.2275 64.7333 71.1404C65.0303 71.0533 65.3274 71.0011 65.6244 70.9836C65.9914 70.9488 66.3583 70.9662 66.6903 71.0185C67.0398 71.0707 67.4067 71.21 67.7737 71.419C67.8611 71.4713 67.9484 71.5235 68.0183 71.5932C68.1057 71.6628 68.1756 71.7325 68.2455 71.7847C68.2804 71.8196 68.3154 71.8544 68.3503 71.8892C68.3853 71.9241 68.4202 71.9415 68.4377 71.9763C68.4901 72.0285 68.56 72.0808 68.6299 72.0982C68.6998 72.133 68.7522 72.133 68.7872 72.133C68.8221 72.133 68.8745 72.1156 68.9095 72.0982C68.9444 72.0808 68.9619 72.0808 68.9794 72.0808C68.9969 72.0808 69.0143 72.0808 69.0493 72.0982C69.0842 72.1156 69.1716 72.133 69.3289 72.2027L64.7158 65.9855L66.0263 65.0103ZM52.7638 76.3475C52.4318 75.9469 52.0474 75.5986 51.628 75.32C51.2086 75.0413 50.7543 74.8324 50.2651 74.6756C50.4223 74.5189 50.5796 74.3796 50.7369 74.2228C50.8941 74.0835 51.0514 73.9442 51.2086 73.8049C51.3659 73.6656 51.5406 73.5436 51.7154 73.4217C51.8901 73.2998 52.0823 73.1779 52.2745 73.0734L52.7638 76.3475ZM59.928 70.914L61.2735 74.1358C60.8192 73.77 60.3474 73.5088 59.8232 73.3347C59.3164 73.1605 58.7747 73.056 58.2156 73.0386C58.4602 72.6207 58.7223 72.2549 58.9844 71.9066C59.264 71.5758 59.5785 71.2449 59.928 70.914ZM64.4187 68.9635C64.611 68.563 64.8206 68.1624 65.0478 67.7793L67.0398 70.4612C66.5331 70.2696 66.0089 70.1477 65.4846 70.1129C64.9604 70.0781 64.4362 70.1129 63.912 70.2C64.0693 69.782 64.244 69.364 64.4187 68.9635Z" fill="#870E0E"/>
<path d="M70.7267 58.3926L70.7442 58.3578L71.0587 57.5915L74.0118 50.2772L72.841 50.7823L69.9579 57.9398L66.2884 63.4081C66.6029 63.3559 66.8825 63.3036 67.1097 63.2688C67.3368 63.234 67.564 63.1992 67.7737 63.1817C67.8261 63.1817 67.896 63.1643 67.9659 63.1121C68.0358 63.0772 68.1057 63.025 68.1756 62.9728C68.2629 62.9205 68.3328 62.8508 68.4377 62.7812C68.525 62.7115 68.6124 62.6419 68.7173 62.5548C68.892 62.4155 69.0667 62.2762 69.2589 62.1368C69.4512 61.9975 69.6434 61.893 69.8181 61.8234C69.8705 62.2762 69.9229 62.7115 69.9754 63.1469C70.0453 63.5823 70.1326 64.0351 70.2375 64.5227L71.88 64.4182C72.1421 64.0525 72.4217 63.7738 72.7187 63.5649C73.0158 63.3559 73.3303 63.1991 73.6623 63.1121C73.9943 63.025 74.3613 62.9728 74.7457 62.9902C75.1301 63.0076 75.5495 63.0424 75.9863 63.1295L76.6328 63.0076L70.4122 58.8802L70.7267 58.3926ZM74.204 62.4155C73.6973 62.4155 73.1905 62.4851 72.7187 62.6245C72.2469 62.7638 71.8101 62.9728 71.3907 63.2688C71.2859 62.9031 71.1985 62.5374 71.1461 62.1542C71.0762 61.7885 70.9888 61.4054 70.8665 61.0049C70.7267 61.0223 70.6044 61.0397 70.4996 61.0397C70.3947 61.0571 70.2899 61.0571 70.185 61.0745C69.9229 61.1094 69.6783 61.1442 69.4337 61.1964C69.189 61.2487 68.9444 61.3183 68.7173 61.4228L69.9404 59.5942L74.204 62.4155Z" fill="#870E0E"/>
<path d="M76.2484 52.6457C76.0737 52.6108 75.9164 52.5934 75.7592 52.576C75.3223 52.5586 74.9029 52.6282 74.5185 52.7676C74.1341 52.9069 73.8021 53.1159 73.5225 53.3945C73.2255 53.6731 73.0158 53.9866 72.876 54.3523C72.8061 54.5439 72.7537 54.7529 72.7537 54.9619C72.7537 55.1708 72.7886 55.3798 72.8585 55.5888C72.9284 55.7804 73.0333 55.9719 73.1905 56.1287C73.3303 56.2854 73.5225 56.4247 73.7497 56.5118C73.9419 56.5814 74.1166 56.6337 74.3088 56.6511C74.4836 56.6685 74.6583 56.6511 74.8156 56.5989C74.9728 56.5466 75.1126 56.477 75.2524 56.3551C75.3747 56.2331 75.4796 56.0938 75.5669 55.9023C75.6368 55.7455 75.6718 55.5888 75.6893 55.4495C75.7067 55.3101 75.6893 55.1708 75.6368 55.0315C75.5844 54.9096 75.5145 54.7877 75.4097 54.6832C75.3048 54.5787 75.165 54.4916 74.9728 54.422C74.8505 54.3697 74.7107 54.3349 74.5884 54.3175C74.4486 54.3001 74.3263 54.3001 74.1865 54.3349C74.204 54.2827 74.204 54.2304 74.2215 54.1782C74.2389 54.1259 74.2389 54.0737 74.2739 54.0389C74.3438 53.8821 74.4486 53.7602 74.6059 53.6383C74.7632 53.5164 74.9379 53.4293 75.1476 53.3771C75.3573 53.3248 75.5669 53.29 75.7941 53.29C76.0213 53.29 76.2309 53.3423 76.4232 53.4467C76.6154 53.5512 76.8076 53.6906 76.9474 53.8821C77.1046 54.0737 77.2095 54.2652 77.2968 54.4916C77.3842 54.718 77.4192 54.927 77.4366 55.1708C77.4366 55.3972 77.4192 55.6062 77.3318 55.7978C77.192 56.1287 77.0173 56.4073 76.7726 56.6337C76.528 56.8601 76.2484 57.0516 75.9164 57.191C75.6019 57.3477 75.2524 57.4522 74.8855 57.5393C74.5185 57.6263 74.1341 57.6786 73.7497 57.7134C73.3653 57.7482 72.9808 57.7657 72.6139 57.7831C72.2295 57.7831 71.88 57.7831 71.548 57.7831L71.0937 58.2359C71.4781 58.2707 71.8975 58.3229 72.3693 58.3578C72.841 58.3926 73.3303 58.41 73.837 58.3926C74.3438 58.3926 74.833 58.3578 75.3398 58.2881C75.829 58.2185 76.3008 58.114 76.7377 57.9572C77.1745 57.8005 77.5415 57.5915 77.8735 57.3477C78.2055 57.0865 78.4501 56.7556 78.6074 56.3725C78.7297 56.059 78.7996 55.7281 78.7821 55.3972C78.7821 55.0663 78.7122 54.7529 78.5899 54.4394C78.5375 54.3001 78.4676 54.1608 78.3802 54.0214L80.8964 54.6658C80.6518 54.718 80.4246 54.8051 80.1975 54.9096C79.9703 55.0315 79.7606 55.1534 79.5509 55.3276C79.3587 55.4843 79.184 55.6585 79.0442 55.8674C78.9044 56.059 78.817 56.268 78.7646 56.4944C78.7122 56.7382 78.6947 56.982 78.7122 57.2084C78.7297 57.4348 78.7996 57.6263 78.9044 57.8005C79.0093 57.9746 79.1665 58.1314 79.3587 58.2533C79.5509 58.3752 79.7781 58.4797 80.0577 58.5319C80.2499 58.5668 80.4246 58.5842 80.5819 58.5493C80.7392 58.5145 80.8964 58.4623 81.0187 58.3752C81.141 58.2881 81.2459 58.1836 81.3333 58.0443C81.4206 57.905 81.4905 57.7657 81.5255 57.5915C81.5954 57.3129 81.5429 57.0691 81.3857 56.8775C81.2284 56.6859 81.0187 56.564 80.7392 56.4944C80.5469 56.4421 80.3547 56.4421 80.18 56.477C80.0053 56.5118 79.8305 56.5814 79.6733 56.6685C79.6733 56.6511 79.6733 56.6337 79.6733 56.6163C79.6733 56.5989 79.6733 56.5814 79.6907 56.564C79.7606 56.2854 79.8655 56.0416 80.0402 55.85C80.2149 55.641 80.4246 55.4669 80.6518 55.3276C80.8964 55.1882 81.1411 55.0838 81.4206 54.9967C81.7002 54.9096 81.9798 54.8748 82.2419 54.8399C82.3293 54.8399 82.3992 54.8225 82.4516 54.8225C82.504 54.8051 82.5564 54.8051 82.6263 54.8051C82.6787 54.8051 82.7312 54.8051 82.7836 54.8051C82.836 54.8051 82.9234 54.8225 83.0282 54.8574C83.1156 54.7877 83.1855 54.7355 83.2554 54.6658C83.3078 54.6135 83.3602 54.5613 83.4126 54.4916C83.4651 54.4394 83.4825 54.3872 83.5 54.3523L76.2484 52.6457Z" fill="#870E0E"/>
</svg>
